<mxfile host="app.diagrams.net" modified="2021-07-13T08:42:03.752Z" agent="5.0 (Windows)" etag="ln8kZcCs1_hqnonDdhd7" version="14.8.6" type="github">
  <diagram id="R2lEEEUBdFMjLlhIrx00" name="Page-1">
    <mxGraphModel dx="1469" dy="763" grid="1" gridSize="10" guides="1" tooltips="1" connect="1" arrows="1" fold="1" page="1" pageScale="1" pageWidth="850" pageHeight="1100" math="0" shadow="0" extFonts="Permanent Marker^https://fonts.googleapis.com/css?family=Permanent+Marker">
      <root>
        <mxCell id="0" />
        <mxCell id="1" parent="0" />
        <mxCell id="0_mepVT2GGyIQu0UdG6n-1" value="cats" style="rounded=0;whiteSpace=wrap;html=1;" vertex="1" parent="1">
          <mxGeometry x="150" y="150" width="120" height="60" as="geometry" />
        </mxCell>
        <mxCell id="0_mepVT2GGyIQu0UdG6n-2" value="cat_name" style="ellipse;whiteSpace=wrap;html=1;" vertex="1" parent="1">
          <mxGeometry x="10" y="140" width="120" height="80" as="geometry" />
        </mxCell>
        <mxCell id="0_mepVT2GGyIQu0UdG6n-3" value="id" style="ellipse;whiteSpace=wrap;html=1;" vertex="1" parent="1">
          <mxGeometry x="150" y="30" width="120" height="80" as="geometry" />
        </mxCell>
        <mxCell id="0_mepVT2GGyIQu0UdG6n-4" value="" style="ellipse;whiteSpace=wrap;html=1;" vertex="1" parent="1">
          <mxGeometry x="150" y="240" width="120" height="80" as="geometry" />
        </mxCell>
        <mxCell id="0_mepVT2GGyIQu0UdG6n-6" value="" style="endArrow=none;html=1;exitX=0.5;exitY=0;exitDx=0;exitDy=0;entryX=0.5;entryY=1;entryDx=0;entryDy=0;" edge="1" parent="1" source="0_mepVT2GGyIQu0UdG6n-1" target="0_mepVT2GGyIQu0UdG6n-3">
          <mxGeometry width="50" height="50" relative="1" as="geometry">
            <mxPoint x="320" y="160" as="sourcePoint" />
            <mxPoint x="360" y="120" as="targetPoint" />
          </mxGeometry>
        </mxCell>
        <mxCell id="0_mepVT2GGyIQu0UdG6n-7" value="" style="endArrow=none;html=1;exitX=0.5;exitY=0;exitDx=0;exitDy=0;entryX=0.5;entryY=1;entryDx=0;entryDy=0;" edge="1" parent="1" source="0_mepVT2GGyIQu0UdG6n-4" target="0_mepVT2GGyIQu0UdG6n-1">
          <mxGeometry width="50" height="50" relative="1" as="geometry">
            <mxPoint x="320" y="260" as="sourcePoint" />
            <mxPoint x="370" y="210" as="targetPoint" />
          </mxGeometry>
        </mxCell>
        <mxCell id="0_mepVT2GGyIQu0UdG6n-10" value="yrs_served" style="ellipse;whiteSpace=wrap;html=1;" vertex="1" parent="1">
          <mxGeometry x="720" y="140" width="120" height="80" as="geometry" />
        </mxCell>
        <mxCell id="0_mepVT2GGyIQu0UdG6n-11" value="" style="endArrow=none;html=1;entryX=0;entryY=0.5;entryDx=0;entryDy=0;" edge="1" target="0_mepVT2GGyIQu0UdG6n-10" parent="1">
          <mxGeometry width="50" height="50" relative="1" as="geometry">
            <mxPoint x="591" y="180" as="sourcePoint" />
            <mxPoint x="640" y="170" as="targetPoint" />
            <Array as="points">
              <mxPoint x="720" y="180" />
            </Array>
          </mxGeometry>
        </mxCell>
        <mxCell id="0_mepVT2GGyIQu0UdG6n-12" value="id" style="ellipse;whiteSpace=wrap;html=1;" vertex="1" parent="1">
          <mxGeometry x="570" y="30" width="120" height="80" as="geometry" />
        </mxCell>
        <mxCell id="0_mepVT2GGyIQu0UdG6n-13" value="" style="endArrow=none;html=1;exitX=0.5;exitY=0;exitDx=0;exitDy=0;entryX=0.5;entryY=1;entryDx=0;entryDy=0;" edge="1" source="0_mepVT2GGyIQu0UdG6n-14" target="0_mepVT2GGyIQu0UdG6n-12" parent="1">
          <mxGeometry width="50" height="50" relative="1" as="geometry">
            <mxPoint x="660" y="160" as="sourcePoint" />
            <mxPoint x="700" y="120" as="targetPoint" />
          </mxGeometry>
        </mxCell>
        <mxCell id="0_mepVT2GGyIQu0UdG6n-14" value="" style="rounded=0;whiteSpace=wrap;html=1;" vertex="1" parent="1">
          <mxGeometry x="570" y="150" width="120" height="60" as="geometry" />
        </mxCell>
        <mxCell id="0_mepVT2GGyIQu0UdG6n-15" value="" style="endArrow=none;html=1;exitX=0.5;exitY=0;exitDx=0;exitDy=0;entryX=0.5;entryY=1;entryDx=0;entryDy=0;" edge="1" source="0_mepVT2GGyIQu0UdG6n-16" target="0_mepVT2GGyIQu0UdG6n-14" parent="1">
          <mxGeometry width="50" height="50" relative="1" as="geometry">
            <mxPoint x="660" y="260" as="sourcePoint" />
            <mxPoint x="710" y="210" as="targetPoint" />
          </mxGeometry>
        </mxCell>
        <mxCell id="0_mepVT2GGyIQu0UdG6n-16" value="servant_name" style="ellipse;whiteSpace=wrap;html=1;" vertex="1" parent="1">
          <mxGeometry x="570" y="250" width="120" height="80" as="geometry" />
        </mxCell>
        <mxCell id="0_mepVT2GGyIQu0UdG6n-18" value="" style="endArrow=none;html=1;exitX=1;exitY=0.5;exitDx=0;exitDy=0;entryX=0;entryY=0.5;entryDx=0;entryDy=0;" edge="1" parent="1" source="0_mepVT2GGyIQu0UdG6n-2" target="0_mepVT2GGyIQu0UdG6n-1">
          <mxGeometry width="50" height="50" relative="1" as="geometry">
            <mxPoint x="220" y="307" as="sourcePoint" />
            <mxPoint x="160" y="190" as="targetPoint" />
          </mxGeometry>
        </mxCell>
        <mxCell id="0_mepVT2GGyIQu0UdG6n-22" value="fur_color" style="text;html=1;strokeColor=none;fillColor=none;align=center;verticalAlign=middle;whiteSpace=wrap;rounded=0;" vertex="1" parent="1">
          <mxGeometry x="180" y="260" width="50" height="40" as="geometry" />
        </mxCell>
        <mxCell id="0_mepVT2GGyIQu0UdG6n-24" value="servants" style="text;html=1;strokeColor=none;fillColor=none;align=center;verticalAlign=middle;whiteSpace=wrap;rounded=0;" vertex="1" parent="1">
          <mxGeometry x="612" y="170" width="40" height="20" as="geometry" />
        </mxCell>
        <mxCell id="0_mepVT2GGyIQu0UdG6n-26" value="has a" style="rhombus;whiteSpace=wrap;html=1;" vertex="1" parent="1">
          <mxGeometry x="385" y="140" width="80" height="80" as="geometry" />
        </mxCell>
        <mxCell id="0_mepVT2GGyIQu0UdG6n-27" value="" style="endArrow=none;html=1;entryX=0;entryY=0.5;entryDx=0;entryDy=0;exitX=1;exitY=0.5;exitDx=0;exitDy=0;" edge="1" parent="1" source="0_mepVT2GGyIQu0UdG6n-1" target="0_mepVT2GGyIQu0UdG6n-26">
          <mxGeometry width="50" height="50" relative="1" as="geometry">
            <mxPoint x="220" y="320" as="sourcePoint" />
            <mxPoint x="270" y="270" as="targetPoint" />
          </mxGeometry>
        </mxCell>
        <mxCell id="0_mepVT2GGyIQu0UdG6n-28" value="" style="endArrow=none;html=1;entryX=0;entryY=0.5;entryDx=0;entryDy=0;exitX=1;exitY=0.5;exitDx=0;exitDy=0;" edge="1" parent="1" source="0_mepVT2GGyIQu0UdG6n-26" target="0_mepVT2GGyIQu0UdG6n-14">
          <mxGeometry width="50" height="50" relative="1" as="geometry">
            <mxPoint x="220" y="320" as="sourcePoint" />
            <mxPoint x="270" y="270" as="targetPoint" />
          </mxGeometry>
        </mxCell>
      </root>
    </mxGraphModel>
  </diagram>
</mxfile>
